<svg xmlns="http://www.w3.org/2000/svg" viewBox="0 0 100 126" role="img" aria-label="Egg, crack stage 3 of 5">
  <defs>
    <linearGradient id="body" x1="0" y1="0" x2="0" y2="1">
      <stop offset="0" stop-color="#faf6ee"/>
      <stop offset="0.55" stop-color="#f1e9da"/>
      <stop offset="1" stop-color="#e3d8c4"/>
    </linearGradient>
    <clipPath id="clip"><path d="M50,6 C66,6 80,28 82,56 C84,85 70,120 50,120 C30,120 16,85 18,56 C20,28 34,6 50,6 Z"/></clipPath>
  </defs>
  <path d="M50,6 C66,6 80,28 82,56 C84,85 70,120 50,120 C30,120 16,85 18,56 C20,28 34,6 50,6 Z" fill="url(#body)" stroke="#d8ccb6" stroke-width="1"/>
  <g clip-path="url(#clip)">
    <ellipse cx="38" cy="40" rx="15" ry="21" fill="#ffffff" opacity="0.30"/>
    <circle cx="45.1" cy="84.7" r="1.22" fill="#8a6d4b" opacity="0.20"/>
    <circle cx="33.5" cy="61.5" r="0.56" fill="#8a6d4b" opacity="0.33"/>
    <circle cx="67.9" cy="75.4" r="0.58" fill="#8a6d4b" opacity="0.21"/>
    <circle cx="27.3" cy="87.9" r="0.64" fill="#8a6d4b" opacity="0.25"/>
    <circle cx="31.0" cy="34.5" r="1.13" fill="#8a6d4b" opacity="0.30"/>
    <circle cx="56.0" cy="66.5" r="1.44" fill="#8a6d4b" opacity="0.27"/>
    <circle cx="55.9" cy="81.0" r="0.84" fill="#8a6d4b" opacity="0.42"/>
    <circle cx="59.0" cy="101.2" r="1.20" fill="#8a6d4b" opacity="0.29"/>
    <circle cx="43.3" cy="64.4" r="0.57" fill="#8a6d4b" opacity="0.24"/>
    <circle cx="42.2" cy="39.6" r="0.85" fill="#8a6d4b" opacity="0.36"/>
    <circle cx="35.3" cy="75.6" r="1.37" fill="#8a6d4b" opacity="0.39"/>
    <circle cx="50.8" cy="104.4" r="1.08" fill="#8a6d4b" opacity="0.44"/>
    <circle cx="48.1" cy="42.5" r="1.58" fill="#8a6d4b" opacity="0.22"/>
    <circle cx="28.8" cy="88.6" r="0.67" fill="#8a6d4b" opacity="0.33"/>
    <circle cx="72.2" cy="77.6" r="1.34" fill="#8a6d4b" opacity="0.35"/>
    <circle cx="61.1" cy="49.0" r="1.26" fill="#8a6d4b" opacity="0.36"/>
    <circle cx="33.4" cy="52.4" r="1.42" fill="#8a6d4b" opacity="0.46"/>
    <circle cx="27.5" cy="74.3" r="0.57" fill="#8a6d4b" opacity="0.39"/>
    <circle cx="33.2" cy="29.8" r="1.40" fill="#8a6d4b" opacity="0.27"/>
    <circle cx="32.8" cy="93.8" r="0.52" fill="#8a6d4b" opacity="0.32"/>
    <circle cx="54.7" cy="82.3" r="0.56" fill="#8a6d4b" opacity="0.41"/>
    <circle cx="59.6" cy="85.3" r="0.93" fill="#8a6d4b" opacity="0.44"/>
    <circle cx="66.4" cy="83.6" r="1.10" fill="#8a6d4b" opacity="0.45"/>
    <circle cx="61.0" cy="27.5" r="0.81" fill="#8a6d4b" opacity="0.30"/>
    <circle cx="33.4" cy="103.0" r="1.55" fill="#8a6d4b" opacity="0.23"/>
    <circle cx="56.0" cy="88.7" r="0.76" fill="#8a6d4b" opacity="0.33"/>
    <path d="M50.0,9.0 L50.4,18.4 L49.9,27.8 L47.7,37.2 L50.7,46.5 L50.6,55.9 L50.2,65.3 L52.9,74.6 L51.0,84.0" fill="none" stroke="#3d2c1a" stroke-width="2.6" stroke-linecap="round" stroke-linejoin="round" opacity="0.5"/>
    <path d="M50.0,9.0 L50.4,18.4 L49.9,27.8 L47.7,37.2 L50.7,46.5 L50.6,55.9 L50.2,65.3 L52.9,74.6 L51.0,84.0" fill="none" stroke="#6b4a2b" stroke-width="1.3" stroke-linecap="round" stroke-linejoin="round" opacity="0.95"/>
    <path d="M50.0,30.0 L57.3,35.3 L62.1,43.2 L69.0,49.0" fill="none" stroke="#3d2c1a" stroke-width="2.6" stroke-linecap="round" stroke-linejoin="round" opacity="0.5"/>
    <path d="M50.0,30.0 L57.3,35.3 L62.1,43.2 L69.0,49.0" fill="none" stroke="#6b4a2b" stroke-width="1.3" stroke-linecap="round" stroke-linejoin="round" opacity="0.95"/>
    <path d="M50.0,53.0 L42.2,61.5 L32.0,67.0" fill="none" stroke="#3d2c1a" stroke-width="2.6" stroke-linecap="round" stroke-linejoin="round" opacity="0.5"/>
    <path d="M50.0,53.0 L42.2,61.5 L32.0,67.0" fill="none" stroke="#6b4a2b" stroke-width="1.3" stroke-linecap="round" stroke-linejoin="round" opacity="0.95"/>
  </g>
</svg>
